<?xml version="1.0" encoding="UTF-8"?>
<svg width="85px" height="48px" viewBox="0 0 85 48" version="1.1" xmlns="http://www.w3.org/2000/svg" xmlns:xlink="http://www.w3.org/1999/xlink">
    <!-- Generator: sketchtool 57.1 (101010) - https://sketch.com -->
    <title>7B7CB9FA-AF66-4FC6-897D-B317B9EEED4A</title>
    <desc>Created with sketchtool.</desc>
    <g id="Page-1" stroke="none" stroke-width="1" fill="none" fill-rule="evenodd">
        <g id="DESKTOP-JOB" transform="translate(-60.000000, -33.000000)">
            <g id="Group-7" transform="translate(60.000000, 33.000000)">
                <g id="Group-2">
                    <path d="M59.0814772,30.6547476 C61.6662011,30.6547476 63.632329,31.186837 64.9799201,32.2510319 C66.3275112,33.3152268 67.0012966,34.9114951 67.0012966,37.0398849 L67.0012966,42.7925358 C67.0012966,43.6571941 67.3989405,44.0895168 68.1942402,44.0895168 C68.3003324,44.0895168 68.4154216,44.0831431 68.5395079,44.0703956 C68.8400715,44.039505 69.1087585,44.2581301 69.1396357,44.558695 C69.1436737,44.5980025 69.1434414,44.6376318 69.1389426,44.6768892 L68.83803,47.3027473 C68.809888,47.5485243 68.6203014,47.744818 68.3756543,47.781507 C67.6362884,47.8923875 67.0235284,47.9478278 66.5373742,47.9478278 C64.1514752,47.9478278 62.7265847,47.0942676 62.2626599,45.3871217 C61.2685353,47.0942676 59.3024073,47.9478278 56.3642169,47.9478278 C54.7073427,47.9478278 53.4370914,47.5931015 52.5534252,46.8836382 C51.6697589,46.174175 51.2279324,45.1432517 51.2279324,43.7908373 C51.2279324,42.3719108 51.73051,41.224593 52.7356804,40.3488493 C53.7408508,39.4731056 55.3921774,38.8024512 57.6897097,38.3368659 L61.4342269,37.6052356 L61.4342269,37.006629 C61.4342269,36.2528243 61.2243593,35.6542236 60.8046178,35.2108091 C60.3848763,34.7673946 59.8105019,34.5456906 59.0814772,34.5456906 C58.2419942,34.5456906 57.5571631,34.7452242 57.0269633,35.1442972 C56.7316869,35.3665472 56.4441199,35.8595516 56.1642625,36.6233103 C56.0652883,36.8934312 55.7740154,37.0407449 55.4977828,36.9603909 L52.0028532,35.9437421 C51.7127326,35.8593566 51.5459595,35.555755 51.6303528,35.2656366 C51.6358912,35.2465971 51.6424607,35.2278727 51.6500321,35.2095465 C52.3115257,33.6084342 53.0323961,32.5391229 53.8126433,32.0016125 C55.1160511,31.1036981 56.8723115,30.6547476 59.0814772,30.6547476 Z M37.4170944,19.3340354 L37.4170944,34.1798569 C37.9031109,33.0713206 38.5934648,32.2343882 39.4881769,31.6690347 C40.382889,31.1036812 41.4377498,30.8210086 42.652791,30.8210086 C44.3980319,30.8210086 45.7897854,31.3309277 46.8280933,32.3507811 C47.8664012,33.3706345 48.3855473,34.8227953 48.3855473,36.7073071 L48.3855473,47.2344579 C48.3855473,47.5365973 48.140615,47.7815296 47.8384757,47.7815296 L43.2992746,47.7815296 C42.9971352,47.7815296 42.7522029,47.5365973 42.7522029,47.2344579 L42.7522029,38.2703355 C42.7522029,36.1641165 41.9679609,35.1110228 40.3994532,35.1110228 C39.5157869,35.1110228 38.7978188,35.4324935 38.2455274,36.0754445 C37.693236,36.7183956 37.4170944,37.7049781 37.4170944,39.0352217 L37.4170944,47.2334975 C37.4170944,47.5054229 37.2186992,47.7310106 36.9587606,47.7734089 L36.8700228,47.7805692 C36.8697029,47.7805692 36.869383,47.7805689 36.8690632,47.7805683 L32.038356,47.772095 C31.7365918,47.7715657 31.492244,47.5267889 31.492244,47.2250242 L31.492244,22.7009598 C35.4421443,19.8232647 37.4170944,18.7009566 37.4170944,19.3340354 Z M76.667944,31.1535679 C76.9700833,31.1535679 77.2150156,31.3985002 77.2150156,31.7006395 L77.2150156,47.2344579 C77.2150156,47.5365973 76.9700833,47.7815296 76.667944,47.7815296 L72.1287429,47.7815296 C71.8266036,47.7815296 71.5816713,47.5365973 71.5816713,47.2344579 L71.5816713,31.7006395 C71.5816713,31.3985002 71.8266036,31.1535679 72.1287429,31.1535679 L76.667944,31.1535679 Z M61.4342269,40.4985009 L58.750104,41.1303635 C58.043171,41.3077293 57.5405933,41.5238906 57.2423559,41.778854 C56.9441186,42.0338173 56.7950021,42.3940862 56.7950021,42.8596715 C56.7950021,43.3252567 56.9385957,43.679983 57.2257873,43.923861 C57.5129788,44.167739 57.9106227,44.2896762 58.4187308,44.2896762 C59.1919388,44.2896762 59.8878155,44.0735149 60.5063819,43.6411857 C61.1249483,43.2088565 61.4342269,42.6379689 61.4342269,41.9285056 L61.4342269,40.4985009 Z M82.4717822,15.5490091 L83.4433981,16.2819885 C83.6094258,16.4072385 83.6435573,16.6428596 83.5198952,16.8100733 L75.1448643,28.1346505 C75.0203641,28.3029976 74.7829644,28.3385426 74.6146173,28.2140424 C74.6103246,28.2108677 74.6060995,28.2076028 74.6019447,28.2042497 L69.17999,23.8284812 C69.0351591,23.711596 68.9965885,23.5068671 69.0889581,23.3452936 L70.7921424,20.3660734 C70.8960608,20.1842988 71.1276608,20.1211838 71.3094354,20.2251022 L71.3314012,20.2386725 L74.0077233,22.0207856 C74.1487942,22.1147221 74.3350755,22.1036153 74.4639849,21.9935814 L81.9973251,15.5633088 C82.1325583,15.447877 82.3298427,15.441931 82.4717822,15.5490091 Z" id="Combined-Shape" fill="#263838"></path>
                    <g id="Group" transform="translate(67.928677, 13.457256)">
                        <path d="M7.97285014,7.17948745 C8.6865032,6.60479379 10.9355853,4.25517946 14.7200965,0.130644465 C14.8483723,-0.00914956555 15.0602358,-0.0325981963 15.2159741,0.075765224 L16.7977674,1.1763841 C16.9696383,1.29597269 17.0120216,1.53224733 16.892433,1.70411828 C16.8903491,1.70711326 16.888222,1.710078 16.8860525,1.71301158 L7.07751926,14.9759467 C6.95301905,15.1442938 6.71561938,15.1798387 6.54727226,15.0553385 C6.54297957,15.0521639 6.53875442,15.0488989 6.53459963,15.0455458 L0.136120372,9.88167682 C-0.00871051215,9.76479159 -0.0472811631,9.56006273 0.0450884606,9.39848923 L2.08540983,5.82954694 C2.18932821,5.64777229 2.42092818,5.58465731 2.60270283,5.6885757 C2.61017673,5.69284843 2.61750293,5.69737451 2.62466868,5.70214605 L4.71721645,7.09553472 L4.71721645,7.09553472 C5.96806689,7.97935345 7.05327812,8.0073377 7.97285014,7.17948745 Z" id="Combined-Shape" fill="#009688"></path>
                        <path d="M6.06983944,8.00051881 C8.50554314,9.68508587 10.637187,9.58307085 12.4647711,7.69447373 L7.0769155,14.9798422 C6.95241529,15.1481894 6.71501562,15.1837343 6.5466685,15.0592341 C6.54237581,15.0560594 6.53815066,15.0527945 6.53399587,15.0494414 L0.135516613,9.88557237 C-0.00931427131,9.76868714 -0.0478849222,9.56395827 0.0444847015,9.40238478 L2.08324338,5.83617596 C2.18713549,5.65435815 2.41876247,5.59123581 2.60055833,5.69516632 C2.60881305,5.69988544 2.61688733,5.7049134 2.62476405,5.71023954 C4.03587362,6.66441361 5.18423208,7.42784004 6.06983944,8.00051881 Z" id="Combined-Shape" fill="#26A69A"></path>
                    </g>
                    <path d="M28.0541687,2.84217094e-14 C34.7388736,2.84217094e-14 40.1578976,5.43841951 40.1578976,12.14705 C40.1578976,18.8556804 34.7388736,24.2940999 28.0541687,24.2940999 C21.3694639,24.2940999 15.9504399,18.8556804 15.9504399,12.14705 C15.9504399,5.43841951 21.3694639,2.84217094e-14 28.0541687,2.84217094e-14 Z M51.373737,2.84217094e-14 C53.8053992,2.84217094e-14 55.6563788,0.45961351 56.9267315,1.37885432 C58.1970842,2.29809513 58.832251,3.63863453 58.832251,5.40051275 C58.832251,8.32238532 57.0180688,11.0973049 53.0257324,11.6053572 C57.6157838,12.2970135 59.8136344,14.9375717 59.8136344,18.2862347 C59.8136344,20.2232064 59.1512072,21.7087429 57.826333,22.7428888 C56.5014587,23.7770347 54.6014104,24.2940999 52.1261309,24.2940999 L43.6935443,24.2940999 C43.391405,24.2940999 43.1464726,24.0491676 43.1464726,23.7470282 L43.1464726,0.547071655 C43.1464726,0.244932323 43.391405,2.91433453e-14 43.6935443,2.84217094e-14 L51.373737,2.84217094e-14 Z M12.6409192,2.84217094e-14 C12.9430586,2.83662073e-14 13.1879909,0.244932323 13.1879909,0.547071655 L13.1879909,17.2767163 C13.3165028,22.8360676 9.85606623,25.0372705 2.80668104,23.880325 C2.54324181,23.8370712 2.34948218,23.6099981 2.34823343,23.3430345 L2.32983722,19.4102255 C2.32850833,19.1081356 2.57225477,18.8620981 2.87434432,18.860685 C2.88279654,18.8606455 2.89124855,18.8608019 2.89969352,18.861154 C4.32064472,18.9204105 5.28545573,18.9116365 5.79412655,18.8348321 C6.65553874,18.7047672 7.28385467,18.2358825 7.49012982,17.9026985 C7.86353921,17.3052697 7.94519719,16.8352982 7.95394581,15.6292132 L7.95478825,0.547071655 C7.95478825,0.244932323 8.19972057,2.85051163e-14 8.5018599,2.84217094e-14 L12.6409192,2.84217094e-14 Z M49.23698,14.2132513 L48.9556037,14.2132513 C48.6534644,14.2132513 48.408532,14.4581836 48.408532,14.760323 L48.408532,19.984919 C48.408532,20.2870583 48.6534644,20.5319906 48.9556037,20.5319906 L49.3198248,20.5319906 C51.1055992,20.5319906 52.3367526,20.3403056 53.0133218,19.9569299 C53.689891,19.5735542 54.0281705,18.8737885 54.0281705,17.8576119 C54.0281705,16.8137214 53.5748299,15.9453653 52.6681352,15.2525176 C51.7614404,14.5596699 50.6177334,14.2132513 49.23698,14.2132513 Z M28.0541687,6.06203088 C24.7054909,6.06203088 21.9908512,8.78638671 21.9908512,12.14705 C21.9908512,15.5077132 24.7054909,18.232069 28.0541687,18.232069 C31.4028465,18.232069 34.1174863,15.5077132 34.1174863,12.14705 C34.1174863,8.78638671 31.4028465,6.06203088 28.0541687,6.06203088 Z M48.9575991,3.7934947 C48.6554569,3.79238871 48.4096328,4.03643394 48.4085357,4.33857615 L48.408532,8.97298997 C48.408532,9.2751293 48.6534644,9.52006163 48.9556037,9.52006163 L49.416477,9.52006163 C50.61313,9.52006163 51.5635344,9.22445105 52.2677187,8.63322102 C52.9719029,8.04199099 53.3239898,7.23829972 53.3239898,6.22212311 C53.3239898,5.27985025 53.0409396,4.64013048 52.4748306,4.30294461 C51.7911582,3.96934346 50.6187477,3.79952682 48.9575991,3.7934947 Z" id="Combined-Shape-Copy-48" fill="#26A69A"></path>
                    <path d="M0.0185225835,23.3292781 L-5.50347669e-05,18.5426947 C-0.00128607686,18.2405257 0.242719766,17.9946184 0.544889003,17.9934456 C0.595306951,17.99325 0.645509987,18.0000241 0.694072927,18.0135758 C2.86916269,18.6205441 4.34507802,18.9240283 5.12181892,18.9240283 C6.40737119,18.9240283 7.28385467,18.2358825 7.49012982,17.9026985 C7.88843317,17.2654411 7.95478825,16.7732018 7.95478825,15.3779255 L7.95478825,0.547071655 C7.95478825,0.244932323 8.19972057,-7.27472235e-14 8.5018599,-7.10542736e-14 L12.6409192,-7.10542736e-14 C12.9430586,-7.28772288e-14 13.1879909,0.244932323 13.1879909,0.547071655 L13.1879909,17.2767163 L13.1879909,17.2767163 C13.3169138,22.853846 9.08457648,25.0513148 0.490978867,23.8691225 C0.221033853,23.831932 0.0195801786,23.6017709 0.0185225835,23.3292781 Z" id="Combined-Shape-Copy-49" fill="#009688"></path>
                    <path d="M7.95478825,15.3779255 L7.95478825,0.547071655 C7.95478825,0.244932323 8.19972057,-1.30747256e-12 8.5018599,-1.30739863e-12 L12.6409192,-1.30739863e-12 C12.9430586,-1.30745414e-12 13.1879909,0.244932323 13.1879909,0.547071655 L13.1879909,17.2767163 L13.1879909,17.2767163 C13.2981817,22.0435057 10.7697885,24.3413946 5.60281127,24.1703832 C5.46195717,24.1657214 5.30162639,24.1564328 5.12181892,24.1425175 C7.56768917,23.3815286 8.0054383,19.4308086 7.95478825,15.3779255 Z" id="Combined-Shape-Copy-50" fill="#26A69A"></path>
                </g>
            </g>
        </g>
    </g>
</svg>